<?xml version="1.0" encoding="utf-8"?>
<!-- Generator: Adobe Illustrator 22.0.0, SVG Export Plug-In . SVG Version: 6.00 Build 0)  -->
<svg version="1.1" id="Capa_1" xmlns="http://www.w3.org/2000/svg" xmlns:xlink="http://www.w3.org/1999/xlink" x="0px" y="0px"
	 viewBox="0 0 402.8 402.8" style="enable-background:new 0 0 402.8 402.8;" xml:space="preserve">
<style type="text/css">
	.st0{fill:#DFDFDF;}
</style>
<g>
	<g>
		<path class="st0" d="M347,185.1H131.3c-9,0-16.3,7.3-16.3,16.3c0,9,7.3,16.3,16.3,16.3H347l-31.5,31.4c-6.3,6.4-6.3,16.7,0,23.1
			c3.1,3.1,7.2,4.8,11.5,4.8c4.4,0,8.4-1.7,11.5-4.8l59.2-59.2c1.5-1.5,2.8-3.3,3.7-5.5c0.8-2,1.2-4.1,1.2-6.1
			c0-2.1-0.4-4.2-1.2-6.2c-0.8-2.1-2.1-3.9-3.5-5.3l-59.3-59.3c-3.1-3.1-7.2-4.8-11.5-4.8c-4.4,0-8.5,1.7-11.6,4.8
			c-6.3,6.4-6.3,16.7,0,23.1L347,185.1z"/>
		<path class="st0" d="M54.4,347.5h183.5c30,0,54.4-24.4,54.4-54.4l0-48.3c-0.2-8.8-7.5-15.9-16.3-15.9c-5.3,0-10.1,2.6-13.1,6.7
			l-3.2,0v57.6c0,12-9.8,21.8-21.7,21.8H54.4c-12,0-21.7-9.8-21.7-21.8V109.6c0-12,9.8-21.8,21.7-21.8h183.5
			c12,0,21.7,9.8,21.7,21.8l0,57.7h3.2c3,4,7.7,6.6,13.1,6.6c8.9,0,16.1-7,16.3-16.3v-48c0-30-24.4-54.4-54.4-54.4H54.4
			C24.4,55.2,0,79.6,0,109.6v183.5C0,323.1,24.4,347.5,54.4,347.5z"/>
	</g>
</g>
</svg>
